<?xml version="1.0" encoding="UTF-8"?>
<svg id="Camada_2" data-name="Camada 2" xmlns="http://www.w3.org/2000/svg" viewBox="0 0 1420.93 270.07">
  <defs>
    <style>
      .cls-1 {
        fill: #543285;
      }

      .cls-2 {
        fill: #fff;
      }
    </style>
  </defs>
  <g id="Camada_1-2" data-name="Camada 1">
    <g>
      <g>
        <path class="cls-2" d="M1123.06,52.57c-7.64,0-14.1,6.3-14.1,13.77v127.81c0,7.91,6.19,14.1,14.1,14.1s13.78-6.33,13.78-14.1v-127.82c-.02-7.46-6.33-13.76-13.78-13.76Z"/>
        <path class="cls-2" d="M1123.06,0c-9.2,0-16.69,7.63-16.69,17.01s7.49,16.36,16.69,16.36,16.69-7.34,16.69-16.36-7.49-17.01-16.69-17.01Z"/>
        <path class="cls-2" d="M1232.68,57.14c-42.92,0-77.84,34.92-77.84,77.84,0,20.85,8.12,40.42,22.86,55.12,14.7,14.65,34.22,22.72,54.96,22.72h.02c9.83,0,18.94-1.67,27.77-5.06,3.76-1.32,6.84-4.08,8.45-7.59,1.57-3.42,1.67-7.28.25-10.95-1.45-3.52-4.21-6.22-7.77-7.61-3.61-1.4-7.71-1.27-11.3.36-6.18,2.04-11.72,2.99-17.4,2.99-27.55,0-49.96-22.42-49.96-49.97s22.41-49.64,49.96-49.64,49.97,22.27,49.97,49.64v64.07c0,7.6,6.33,13.78,14.1,13.78s13.77-6.18,13.77-13.78v-64.07c0-42.92-34.92-77.84-77.84-77.84Z"/>
        <path class="cls-1" d="M1416.47,124.22l-63.49-63.49c-5.94-5.94-15.6-5.94-21.54,0-5.94,5.94-5.94,15.6,0,21.54l52.72,52.72-52.72,52.72c-2.88,2.88-4.46,6.7-4.46,10.77s1.58,7.89,4.46,10.77h0c2.88,2.88,6.7,4.46,10.77,4.46s7.89-1.58,10.77-4.46l63.49-63.49c5.94-5.94,5.94-15.6,0-21.54Z"/>
        <path class="cls-1" d="M1077.35,60.72c-5.94-5.94-15.6-5.94-21.54,0l-63.49,63.49c-5.94,5.94-5.94,15.6,0,21.54l63.49,63.49c2.88,2.88,6.7,4.46,10.77,4.46s7.89-1.58,10.77-4.46c5.94-5.94,5.94-15.6,0-21.54l-52.72-52.72,52.72-52.72c5.94-5.94,5.94-15.6,0-21.54Z"/>
      </g>
      <path class="cls-2" d="M10.35.15c5.5,0,10.02,4.53,10.02,10.03v179.26c0,5.83-4.52,10.35-10.02,10.35s-10.35-4.52-10.35-10.35V10.18C0,4.68,4.85.15,10.35.15Z"/>
      <path class="cls-2" d="M218.09,187.2c-.31,3.96-.25,8.48-2.57,11.9-2.69,3.97-8.45,4.94-12.84,3.84-7.46-1.87-8.18-10.53-8.06-16.91.09-4.65.17-9.28.17-13.94v-46.69c0-40.76-33-74.09-74.09-74.09S46.62,84.63,46.62,125.4s33.33,74.1,74.1,74.09c9.38,0,18.13-1.62,26.53-4.85,5.5-1.93,8.73-7.76,6.47-13.58-2.26-5.5-8.74-7.77-14.23-5.18-5.83,1.94-11.97,3.24-18.78,3.24-29.44,0-53.71-23.95-53.71-53.72s24.27-53.39,53.71-53.39,53.72,23.95,53.72,53.39v26.07c0,11.81-.07,23.62-.01,35.43.03,6.19,1.08,12.82,3.97,18.35,4.7,8.98,14.15,15.2,24.27,16.34,20.4,2.3,33.9-14,34.2-32.63.2-12.4-17.8-13.93-18.76-1.76Z"/>
      <path class="cls-2" d="M302.15,51.63c-2.26-.23-4.58-.33-6.9-.33-.41,0-.81,0-1.2.03-8.93.15-17.28,2.06-25.34,4.83-.25.1-.53.23-.79.36-5.01,2.47-7.84,8.01-5.67,13.23,2.24,5.5,8.73,8.09,14.22,5.5,3.54-1.37,7.2-2.26,11.07-2.75.1-.05.23-.05.33-.05,2.37-.31,4.83-.43,7.38-.43,29.44,0,53.38,23.94,53.38,53.38s-23.94,53.74-53.38,53.74-53.71-23.97-53.71-53.74V10.54c0-5.5-4.53-10.02-10.36-10.02-5.5,0-10.03,4.53-10.03,10.02v114.86c0,3.28.2,6.49.64,9.64,4.66,36.49,35.62,64.45,73.46,64.45,40.76,0,74.09-33,74.09-74.09,0-38.45-29.64-70.28-67.2-73.76Z"/>
      <path class="cls-2" d="M459.57,51.3c5.25,0,10.01,3.8,10.52,9.03.59,5.94-4.14,11.03-10.3,11.03h-24.15c-10.96,0-19.85,8.89-19.85,19.85v97.92c0,7.1-7.2,12.26-14,9.67-3.96-1.51-6.37-5.57-6.37-9.81v-100.71c0-20.43,16.56-36.98,36.98-36.98h27.18Z"/>
      <path class="cls-2" d="M549.38,51.28c38.51,0,70.54,29.76,73.12,67.63,1.94,8.41-1.29,14.24-11.33,14.24h-114.22c3.23,25.89,25.56,45.94,52.42,45.94,14.56,0,28.15-6.14,37.85-15.86,2.27-1.94,4.85-2.91,7.12-2.91,2.91,0,5.5.97,7.12,2.91,4.2,4.2,4.2,10.35,0,14.55-13.28,13.26-31.71,21.68-52.1,21.68-40.77,0-74.09-33.33-74.09-74.09s33.32-74.09,74.09-74.09ZM549.38,71.66c-26.85,0-49.17,20.38-52.42,46.28h104.51c-2.59-25.89-25.24-46.28-52.1-46.28Z"/>
      <path class="cls-2" d="M788.38,125.11v70.86c0,41.09-33.33,74.09-74.42,74.09-5.49,0-10.03-4.52-10.03-10.35,0-5.18,4.2-9.71,9.38-10.03h1.29c29.44-.32,53.07-24.27,53.07-53.72v-70.86c0-29.44-23.95-53.39-53.71-53.39s-53.39,23.95-53.39,53.39,23.95,53.72,53.39,53.72c6.79,0,12.95-1.3,19.1-3.24,5.17-2.59,11.64-.32,13.91,5.18,2.26,5.82-.98,11.65-6.47,13.58-8.09,3.23-17.16,4.85-26.53,4.85-40.76,0-74.09-33-74.09-74.11,0-40.74,33.32-74.07,74.08-74.07s74.42,33.33,74.42,74.09Z"/>
      <path class="cls-2" d="M883.95,51.28c40.77,0,74.1,33,74.1,74.09s-33.33,74.09-74.1,74.09-74.09-33-74.09-74.09,33.33-74.09,74.09-74.09ZM883.95,71.33c-29.77,0-53.71,23.95-53.71,54.04s23.94,53.72,53.71,53.72,53.72-23.95,53.72-53.72-23.95-54.04-53.72-54.04Z"/>
    </g>
  </g>
</svg>